<svg width="391" height="844" viewBox="0 0 391 844" fill="none" xmlns="http://www.w3.org/2000/svg">
<path d="M170.709 420.531L188.979 454.91M170.709 420.531H196.099H221.489M170.709 420.531L164.527 437.49M170.709 420.531H120.466M170.709 420.531L152.708 296.786M188.979 454.91H196.099H203.219M188.979 454.91L183.337 505.042M188.979 454.91L181.725 452.393M203.219 454.91L221.489 420.531M203.219 454.91L208.593 505.042M203.219 454.91L210.205 452.393M221.489 420.531L227.129 437.49M221.489 420.531H271.732M221.489 420.531L239.491 296.786M183.337 505.042H208.593M183.337 505.042L175.545 511.979M183.337 505.042L178.232 515.32L176.083 530.572M208.593 505.042L216.653 510.181M208.593 505.042L213.966 515.32L215.847 530.572M215.847 530.572L224.985 526.138M215.847 530.572L195.965 533.655L176.083 530.572M176.083 530.572L168.288 525.11M216.653 510.181L224.985 526.138M216.653 510.181L210.205 452.393M216.653 510.181L227.666 458.797M224.985 526.138L244.939 547.552M175.545 511.979L168.288 525.11M175.545 511.979L181.725 452.393M175.545 511.979L165.064 458.683M168.288 525.11L145.648 547.552M191 532.885L183.337 552.904M201.734 532.761L208.862 552.904M210.205 452.393L227.129 437.49M210.205 452.393L227.666 458.797M181.725 452.393L164.527 437.49M181.725 452.393L165.064 458.683M227.129 437.49L263.669 434.805M271.732 420.531L263.669 434.805M271.732 420.531L290.542 434.858M271.732 420.531L288.125 329.88M263.669 434.805L279.259 440.227M164.527 437.49L128.793 434.805M128.793 434.805L120.466 420.531M128.793 434.805L112.941 440.227M120.466 420.531L101.392 434.858M120.466 420.531L104.611 329.88M290.542 434.858L279.259 440.227M290.542 434.858L296.184 453.704M279.259 440.227L265.021 455.038M101.392 434.858L112.941 440.227M101.392 434.858L95.3395 453.704M112.941 440.227L126.37 455.998M227.666 458.797L265.021 455.038M265.021 455.038L288.412 485.263M165.064 458.683L126.37 455.998M126.37 455.998L103.83 485.263M288.125 329.88L239.491 296.786M288.125 329.88L307.197 426.803M104.611 329.88L152.708 296.786M104.611 329.88L85 426.803M152.708 296.786H239.491M296.184 453.704L307.197 426.803M296.184 453.704L288.412 485.263M307.197 426.803L275.494 543.999M95.3395 453.704L85 426.803M95.3395 453.704L103.83 485.263M85 426.803L116.974 543.999M103.83 485.263L115.092 494.071M103.83 485.263L116.974 543.999M288.412 485.263L276.568 494.071M288.412 485.263L275.494 543.999M276.568 494.071L244.939 547.552M276.568 494.071L275.494 543.999M244.939 547.552L208.862 558.54M244.939 547.552L208.862 552.904M244.939 547.552L219.337 570.386M244.939 547.552L275.494 543.999M244.939 547.552L228.212 601.786M115.092 494.071L145.648 547.552M115.092 494.071L116.974 543.999M145.648 547.552L183.337 558.54M145.648 547.552L183.337 552.904M145.648 547.552L172.862 570.386M145.648 547.552L116.974 543.999M145.648 547.552L164.26 601.786M116.974 543.999L164.26 601.786M164.26 601.786H228.212M164.26 601.786L172.862 570.386M228.212 601.786L275.494 543.999M228.212 601.786L219.337 570.386M183.337 552.904L196.099 555.569L208.862 552.904M183.337 552.904L196.099 561.88M208.862 552.904L196.099 561.88M196.099 561.88L208.862 558.54M196.099 561.88L183.337 558.54M208.862 558.54L219.337 570.386M183.337 558.54L172.862 570.386M172.862 570.386H219.337" stroke="white"/>
</svg>
