<svg width="391" height="844" viewBox="0 0 391 844" fill="none" xmlns="http://www.w3.org/2000/svg">
<path d="M268.559 371.535L262.488 395.994M268.559 371.535L274.744 388.493M268.559 371.535H313.5M268.559 371.535L281.282 269M268.559 371.535C256.422 371.535 231.988 371.535 231.344 371.535M262.488 395.994H243.156M262.488 395.994L263.197 398.495M243.156 395.994L231.344 371.535M243.156 395.994L254.97 451.839M243.156 395.994L229.044 403.397M231.344 371.535L212.111 388.493M231.344 371.535H167.486M231.344 371.535L199.125 269M278.329 451.839H254.97M278.329 451.839L283.161 471.975M278.329 451.839L272.728 432.094M254.97 451.839L217.754 464.726M254.97 451.839L255.776 471.975M255.776 471.975L229.044 483.52M255.776 471.975L253.896 483.52M255.776 471.975L270.306 473.318L283.161 471.975M283.161 471.975L281.282 478.419M283.161 471.975L261.682 483.52M217.754 464.726L229.044 483.52M217.754 464.726L229.044 403.397M217.754 464.726L211.574 416.244M229.044 483.52H246.647M229.044 483.52L203.421 518.253M281.282 478.419L263.83 483.52M281.282 478.419L283.161 518.253M261.682 483.52H253.896M261.682 483.52H263.83M253.896 483.52H246.647M263.83 483.52L270.006 501.777M246.647 483.52L241.546 501.777M229.044 403.397L212.111 388.493M229.044 403.397L211.574 416.244M212.111 388.493H175.553M167.486 371.535L175.553 388.493M167.486 371.535L148.667 399.285M167.486 371.535L138.984 291.623M175.553 388.493L157.808 399.285M274.744 388.493H305.435M274.744 388.493L263.197 398.495M305.435 388.493L313.5 371.535M305.435 388.493L312.158 399.285M313.5 371.535L320.212 389.55M313.5 371.535L310.496 291.623M148.667 399.285H157.808M148.667 399.285L135.763 410.077M157.808 399.285L168.831 416.244M320.212 389.55L312.158 399.285M320.212 389.55L310.547 410.077L315.38 447.006M320.212 389.55L310.496 291.623M312.158 399.285L304.103 418.557M211.574 416.244H168.831M168.831 416.244L148.667 447.006M274.207 418.557H304.103M274.207 418.557L267.039 412.037M274.207 418.557L272.728 432.094M304.103 418.557L315.38 447.006M138.984 291.623L199.125 269M138.984 291.623L100.322 399.285M310.496 291.623L281.282 269M281.282 269H199.125M135.763 410.077L100.322 399.285M135.763 410.077L148.667 447.006M100.322 399.285L135.763 537.754M315.38 447.006L306.788 471.975M315.38 447.006L290.679 529.163M148.667 447.006L172.314 455.814M148.667 447.006L135.763 537.754M172.314 455.814L203.421 518.253M172.314 455.814L135.763 537.754M203.421 518.253L244.769 514.913M203.421 518.253L241.546 501.777M203.421 518.253L231.344 532.129M203.421 518.253L135.763 537.754M203.421 518.253L199.743 574M306.788 471.975L283.161 518.253M306.788 471.975L290.679 529.163M283.161 518.253L270.306 514.913M283.161 518.253L270.006 501.777M283.161 518.253L270.006 532.129M283.161 518.253L290.679 529.163M283.161 518.253L266.515 574M290.679 529.163L266.515 574M266.515 574H199.743M266.515 574L270.006 532.129M199.743 574L135.763 537.754M199.743 574L231.344 532.129M270.006 501.777L254.739 505.268L241.546 501.777M270.006 501.777L255.776 518.253M241.546 501.777L255.776 518.253M255.776 518.253L244.769 514.913M255.776 518.253L270.306 514.913M244.769 514.913L231.344 532.129M270.306 514.913L270.006 532.129M270.006 532.129H231.344M263.197 398.495L267.039 412.037M267.039 412.037L272.728 432.094" stroke="white"/>
</svg>
