<svg width="390" height="844" viewBox="0 0 390 844" fill="none" xmlns="http://www.w3.org/2000/svg">
<path d="M133.313 371.535L139.384 395.994M133.313 371.535L127.128 388.493M133.313 371.535H88.3718M133.313 371.535L120.59 269M133.313 371.535C145.45 371.535 169.884 371.535 170.529 371.535M139.384 395.994H158.716M139.384 395.994L138.675 398.495M158.716 395.994L170.529 371.535M158.716 395.994L146.902 451.839M158.716 395.994L172.828 403.397M170.529 371.535L189.761 388.493M170.529 371.535H234.386M170.529 371.535L202.747 269M123.543 451.839H146.902M123.543 451.839L118.711 471.975M123.543 451.839L129.144 432.094M146.902 451.839L184.118 464.726M146.902 451.839L146.096 471.975M146.096 471.975L172.828 483.52M146.096 471.975L147.976 483.52M146.096 471.975L131.566 473.318L118.711 471.975M118.711 471.975L120.59 478.419M118.711 471.975L140.19 483.52M184.118 464.726L172.828 483.52M184.118 464.726L172.828 403.397M184.118 464.726L190.298 416.244M172.828 483.52H155.225M172.828 483.52L198.451 518.253M120.59 478.419L138.042 483.52M120.59 478.419L118.711 518.253M140.19 483.52H147.976M140.19 483.52H138.042M147.976 483.52H155.225M138.042 483.52L131.867 501.777M155.225 483.52L160.326 501.777M172.828 403.397L189.761 388.493M172.828 403.397L190.298 416.244M189.761 388.493H226.319M234.386 371.535L226.319 388.493M234.386 371.535L253.205 399.285M234.386 371.535L262.888 291.623M226.319 388.493L244.064 399.285M127.128 388.493H96.4374M127.128 388.493L138.675 398.495M96.4374 388.493L88.3718 371.535M96.4374 388.493L89.7142 399.285M88.3718 371.535L81.6597 389.55M88.3718 371.535L91.3761 291.623M253.205 399.285H244.064M253.205 399.285L266.109 410.077M244.064 399.285L233.041 416.244M81.6597 389.55L89.7142 399.285M81.6597 389.55L91.3252 410.077L86.4924 447.006M81.6597 389.55L91.3761 291.623M89.7142 399.285L97.7688 418.557M190.298 416.244H233.041M233.041 416.244L253.205 447.006M127.665 418.557H97.7688M127.665 418.557L134.833 412.037M127.665 418.557L129.144 432.094M97.7688 418.557L86.4924 447.006M262.888 291.623L202.747 269M262.888 291.623L301.55 399.285M91.3761 291.623L120.59 269M120.59 269H202.747M266.109 410.077L301.55 399.285M266.109 410.077L253.205 447.006M301.55 399.285L266.109 537.754M86.4924 447.006L95.084 471.975M86.4924 447.006L111.193 529.163M253.205 447.006L229.558 455.814M253.205 447.006L266.109 537.754M229.558 455.814L198.451 518.253M229.558 455.814L266.109 537.754M198.451 518.253L157.103 514.913M198.451 518.253L160.326 501.777M198.451 518.253L170.529 532.129M198.451 518.253L266.109 537.754M198.451 518.253L202.129 574M95.084 471.975L118.711 518.253M95.084 471.975L111.193 529.163M118.711 518.253L131.566 514.913M118.711 518.253L131.867 501.777M118.711 518.253L131.867 532.129M118.711 518.253L111.193 529.163M118.711 518.253L135.357 574M111.193 529.163L135.357 574M135.357 574H202.129M135.357 574L131.867 532.129M202.129 574L266.109 537.754M202.129 574L170.529 532.129M131.867 501.777L147.133 505.268L160.326 501.777M131.867 501.777L146.096 518.253M160.326 501.777L146.096 518.253M146.096 518.253L157.103 514.913M146.096 518.253L131.566 514.913M157.103 514.913L170.529 532.129M131.566 514.913L131.867 532.129M131.867 532.129H170.529M138.675 398.495L134.833 412.037M134.833 412.037L129.144 432.094" stroke="white"/>
</svg>
