<svg width="390" height="844" viewBox="0 0 390 844" fill="none" xmlns="http://www.w3.org/2000/svg">
<path d="M169.633 371.266L187.887 394.906M169.633 371.266H195.001H220.368M169.633 371.266L163.456 388.225M169.633 371.266H119.435M169.633 371.266L151.648 269M187.887 394.906H195.001H202.114M187.887 394.906L182.25 450.407M187.887 394.906L180.639 403.128M202.114 394.906L220.368 371.266M202.114 394.906L207.483 450.407M202.114 394.906L209.094 403.128M220.368 371.266L226.003 388.225M220.368 371.266H270.567M220.368 371.266L238.354 269M182.25 450.407H207.483M182.25 450.407L174.465 457.345M182.25 450.407L177.149 460.685L175.002 473.789M207.483 450.407L215.536 455.546M207.483 450.407L212.852 460.685L214.731 473.789M214.731 473.789L226.005 476.873M214.731 473.789L196.974 481.441M214.731 473.789L194.866 476.873L175.002 473.789M175.002 473.789L165.07 475.845M175.002 473.789L192.987 481.441M215.536 455.546L226.005 476.873M215.536 455.546L209.094 403.128M215.536 455.546L226.539 415.976M226.005 476.873L202.383 482.783M226.005 476.873L244.805 517.985M174.465 457.345L165.07 475.845M174.465 457.345L180.639 403.128M174.465 457.345L163.993 418.288M165.07 475.845L188.961 482.783M165.07 475.845L145.47 517.985M192.987 481.441H196.974M192.987 481.441L188.961 482.783M196.974 481.441L202.383 482.783M188.961 482.783L182.25 499.88M202.383 482.783L207.752 499.88M209.094 403.128L226.003 388.225M209.094 403.128L226.539 415.976M180.639 403.128L163.456 388.225M180.639 403.128L163.993 418.288M226.003 388.225H262.511M270.567 371.266L262.511 388.225M270.567 371.266L289.359 399.017M270.567 371.266L286.945 291.355M262.511 388.225L280.231 399.017M163.456 388.225H127.754M127.754 388.225L119.435 371.266M127.754 388.225L109.772 399.017M119.435 371.266L100.377 399.017M119.435 371.266L103.594 291.355M289.359 399.017H280.231M289.359 399.017L294.997 409.809M280.231 399.017L269.224 415.976M100.377 399.017H109.772M100.377 399.017L94.3304 409.809M109.772 399.017L119.971 418.288M226.539 415.976H269.224M269.224 415.976L287.232 446.738M163.993 418.288H119.971M119.971 418.288L102.814 446.738M286.945 291.355L238.354 269M286.945 291.355L306 399.017M103.594 291.355L151.648 269M103.594 291.355L84 399.017M151.648 269H238.354M294.997 409.809L306 399.017M294.997 409.809L287.232 446.738M306 399.017L274.325 521.582M94.3304 409.809L84 399.017M94.3304 409.809L102.814 446.738M84 399.017L115.946 521.582M102.814 446.738L114.065 455.546M102.814 446.738L115.946 521.582M287.232 446.738L275.398 455.546M287.232 446.738L274.325 521.582M275.398 455.546L244.805 517.985M275.398 455.546L274.325 521.582M244.805 517.985L207.752 514.644M244.805 517.985L207.752 499.88M244.805 517.985L215.536 531.86M244.805 517.985L274.325 521.582M244.805 517.985L229.766 574M114.065 455.546L145.47 517.985M114.065 455.546L115.946 521.582M145.47 517.985L182.25 514.644M145.47 517.985L182.25 499.88M145.47 517.985L174.465 531.86M145.47 517.985L115.946 521.582M145.47 517.985L160.508 574M115.946 521.582L160.508 574M160.508 574H229.766M160.508 574L174.465 531.86M229.766 574L274.325 521.582M229.766 574L215.536 531.86M182.25 499.88L195.001 506.304L207.752 499.88M182.25 499.88L195.001 517.985M207.752 499.88L195.001 517.985M195.001 517.985L207.752 514.644M195.001 517.985L182.25 514.644M207.752 514.644L215.536 531.86M182.25 514.644L174.465 531.86M174.465 531.86H215.536" stroke="white"/>
</svg>
