<svg width="391" height="844" viewBox="0 0 391 844" fill="none" xmlns="http://www.w3.org/2000/svg">
<path d="M170.751 316.157L189.03 334.427M170.751 316.157H196.154H221.556M170.751 316.157L164.566 338.485M170.751 316.157L120.484 326.897M170.751 316.157L152.741 230M189.03 334.427H196.154H203.277M189.03 334.427L183.385 379.189M189.03 334.427L181.772 348.019M203.277 334.427L221.556 316.157M203.277 334.427L208.654 379.189M203.277 334.427L210.266 348.019M221.556 316.157L227.199 338.485M221.556 316.157L271.824 326.897M221.556 316.157L239.567 230M183.385 379.189H208.654M183.385 379.189L175.59 386.126M183.385 379.189L178.278 389.467L176.127 391.832M208.654 379.189L216.718 384.328M208.654 379.189L214.03 389.467L215.911 391.832M215.911 391.832L227.201 416.394M215.911 391.832L198.13 415.593M215.911 391.832L196.019 394.915L176.127 391.832M176.127 391.832L166.181 415.366M176.127 391.832L194.138 415.593M216.718 384.328L227.201 416.394M216.718 384.328L210.266 348.019M216.718 384.328L227.736 360.866M227.201 416.394L203.546 416.934M227.201 416.394L246.027 473.615M175.59 386.126L166.181 415.366M175.59 386.126L181.772 348.019M175.59 386.126L165.103 363.179M166.181 415.366L190.106 416.934M166.181 415.366L146.554 473.615M194.138 415.593H198.13M194.138 415.593L190.106 416.934M198.13 415.593L203.546 416.934M190.106 416.934L183.385 434.031M203.546 416.934L208.922 434.031M210.266 348.019L227.199 338.485M210.266 348.019L227.736 360.866M181.772 348.019L164.566 338.485M181.772 348.019L165.103 363.179M227.199 338.485L263.757 343.855M271.824 326.897L263.757 343.855M271.824 326.897L290.643 365.387M271.824 326.897L288.225 252.355M263.757 343.855L281.502 360.017M164.566 338.485L128.814 343.855M128.814 343.855L120.484 326.897M128.814 343.855L110.807 360.017M120.484 326.897L101.4 365.387M120.484 326.897L104.621 252.355M290.643 365.387L281.502 360.017M290.643 365.387L296.288 376.178M281.502 360.017L270.479 366.236M101.4 365.387L110.807 360.017M101.4 365.387L95.3446 376.178M110.807 360.017L121.021 368.549M227.736 360.866L270.479 366.236M270.479 366.236L288.512 396.998M165.103 363.179L121.021 368.549M121.021 368.549L103.839 396.998M288.225 252.355L239.567 230M288.225 252.355L307.306 360.017M104.621 252.355L152.741 230M104.621 252.355L85 360.017M152.741 230H239.567M296.288 376.178L307.306 360.017M296.288 376.178L288.512 396.998M307.306 360.017L275.588 498.691M95.3446 376.178L85 360.017M95.3446 376.178L103.839 396.998M85 360.017L116.99 498.691M103.839 396.998L115.107 411.176M103.839 396.998L116.99 498.691M288.512 396.998L276.662 411.176M288.512 396.998L275.588 498.691M276.662 411.176L246.027 473.615M276.662 411.176L275.588 498.691M246.027 473.615L208.922 448.796M246.027 473.615L208.922 434.031M246.027 473.615L216.718 466.012M246.027 473.615L275.588 498.691M246.027 473.615L230.967 535M115.107 411.176L146.554 473.615M115.107 411.176L116.99 498.691M146.554 473.615L183.385 448.796M146.554 473.615L183.385 434.031M146.554 473.615L175.59 466.012M146.554 473.615L116.99 498.691M146.554 473.615L161.614 535M116.99 498.691L161.614 535M161.614 535H230.967M161.614 535L175.59 466.012M230.967 535L275.588 498.691M230.967 535L216.718 466.012M183.385 434.031L196.154 440.455L208.922 434.031M183.385 434.031L196.154 452.136M208.922 434.031L196.154 452.136M196.154 452.136L208.922 448.796M196.154 452.136L183.385 448.796M208.922 448.796L216.718 466.012M183.385 448.796L175.59 466.012M175.59 466.012H216.718" stroke="white"/>
</svg>
